<svg width="48" height="48" viewBox="0 0 48 48" fill="none" xmlns="http://www.w3.org/2000/svg">
<path d="M32.25 14.625V12.375C32.25 12.1687 32.0812 12 31.875 12H13.875C13.6687 12 13.5 12.1687 13.5 12.375V14.625C13.5 14.8313 13.6687 15 13.875 15H31.875C32.0812 15 32.25 14.8313 32.25 14.625ZM13.875 18.75C13.6687 18.75 13.5 18.9187 13.5 19.125V21.375C13.5 21.5812 13.6687 21.75 13.875 21.75H22.5C22.7062 21.75 22.875 21.5812 22.875 21.375V19.125C22.875 18.9187 22.7062 18.75 22.5 18.75H13.875ZM31.5 24.1875C25.9078 24.1875 21.375 28.7203 21.375 34.3125C21.375 39.9047 25.9078 44.4375 31.5 44.4375C37.0922 44.4375 41.625 39.9047 41.625 34.3125C41.625 28.7203 37.0922 24.1875 31.5 24.1875ZM36.5391 39.3516C35.1938 40.6969 33.4031 41.4375 31.5 41.4375C29.5969 41.4375 27.8062 40.6969 26.4609 39.3516C25.1156 38.0062 24.375 36.2156 24.375 34.3125C24.375 32.4094 25.1156 30.6187 26.4609 29.2734C27.8062 27.9281 29.5969 27.1875 31.5 27.1875C33.4031 27.1875 35.1938 27.9281 36.5391 29.2734C37.8844 30.6187 38.625 32.4094 38.625 34.3125C38.625 36.2156 37.8844 38.0062 36.5391 39.3516ZM35.6719 30.75H33.5953C33.4734 30.75 33.3609 30.8062 33.2906 30.9047L30.3141 35.0203L29.2312 33.525C29.1966 33.4767 29.1508 33.4374 29.0978 33.4105C29.0447 33.3836 28.986 33.3698 28.9266 33.3703H26.8594C26.5547 33.3703 26.3766 33.7172 26.5547 33.9656L30.0141 38.7516C30.1641 38.9578 30.4688 38.9578 30.6188 38.7516L35.9719 31.3453C36.1547 31.0969 35.9766 30.75 35.6719 30.75ZM20.625 39.9375H9.75V6.9375H36V23.0625C36 23.2687 36.1688 23.4375 36.375 23.4375H39C39.2062 23.4375 39.375 23.2687 39.375 23.0625V5.0625C39.375 4.23281 38.7047 3.5625 37.875 3.5625H7.875C7.04531 3.5625 6.375 4.23281 6.375 5.0625V41.8125C6.375 42.6422 7.04531 43.3125 7.875 43.3125H20.625C20.8313 43.3125 21 43.1437 21 42.9375V40.3125C21 40.1063 20.8313 39.9375 20.625 39.9375Z" fill="#FF5900"/>
</svg>
