<svg width="44" height="44" viewBox="0 0 44 44" fill="none" xmlns="http://www.w3.org/2000/svg">
<path d="M34.8 1.2002H8.39999C6.41999 1.2002 4.79999 2.8202 4.79999 4.8002V38.4002C4.79999 40.3802 6.41999 42.0002 8.39999 42.0002H34.8C36.78 42.0002 38.4 40.3802 38.4 38.4002V4.8002C38.4 2.8202 36.78 1.2002 34.8 1.2002ZM36 38.4002C36 39.0602 35.46 39.6002 34.8 39.6002H8.39999C7.73999 39.6002 7.19999 39.0602 7.19999 38.4002V4.8002C7.19999 4.1402 7.73999 3.6002 8.39999 3.6002H34.8C35.46 3.6002 36 4.1402 36 4.8002V38.4002ZM32.4 6.0002H10.8C10.14 6.0002 9.59999 6.54019 9.59999 7.20019V19.2002C9.59999 19.8602 10.14 20.4002 10.8 20.4002H32.4C33.06 20.4002 33.6 19.8602 33.6 19.2002V7.20019C33.6 6.54019 33.06 6.0002 32.4 6.0002ZM31.2 18.0002H12V8.4002H31.2V18.0002ZM15.6 21.6002H10.8C10.14 21.6002 9.59999 22.1402 9.59999 22.8002V27.6002C9.59999 28.2602 10.14 28.8002 10.8 28.8002H15.6C16.26 28.8002 16.8 28.2602 16.8 27.6002V22.8002C16.8 22.1402 16.26 21.6002 15.6 21.6002ZM14.4 26.4002H12V24.0002H14.4V26.4002ZM19.2 28.8002H24C24.66 28.8002 25.2 28.2602 25.2 27.6002V22.8002C25.2 22.1402 24.66 21.6002 24 21.6002H19.2C18.54 21.6002 18 22.1402 18 22.8002V27.6002C18 28.2602 18.54 28.8002 19.2 28.8002ZM20.4 24.0002H22.8V26.4002H20.4V24.0002ZM32.4 21.6002H27.6C26.94 21.6002 26.4 22.1402 26.4 22.8002V27.6002C26.4 28.2602 26.94 28.8002 27.6 28.8002H32.4C33.06 28.8002 33.6 28.2602 33.6 27.6002V22.8002C33.6 22.1402 33.06 21.6002 32.4 21.6002ZM31.2 26.4002H28.8V24.0002H31.2V26.4002ZM32.4 30.0002H19.2C18.54 30.0002 18 30.5402 18 31.2002V36.0002C18 36.6602 18.54 37.2002 19.2 37.2002H32.4C33.06 37.2002 33.6 36.6602 33.6 36.0002V31.2002C33.6 30.5402 33.06 30.0002 32.4 30.0002ZM31.2 34.8002H20.4V32.4002H31.2V34.8002ZM15.6 30.0002H10.8C10.14 30.0002 9.59999 30.5402 9.59999 31.2002V36.0002C9.59999 36.6602 10.14 37.2002 10.8 37.2002H15.6C16.26 37.2002 16.8 36.6602 16.8 36.0002V31.2002C16.8 30.5402 16.26 30.0002 15.6 30.0002ZM14.4 34.8002H12V32.4002H14.4V34.8002Z" fill="#FF5900"/>
</svg>
