<svg width="50" height="50" viewBox="0 0 50 50" fill="none" xmlns="http://www.w3.org/2000/svg">
<path d="M24.64 26.9395C25.6683 26.9395 26.5019 26.106 26.5019 25.0777C26.5019 24.0494 25.6683 23.2158 24.64 23.2158C23.6118 23.2158 22.7782 24.0494 22.7782 25.0777C22.7782 26.106 23.6118 26.9395 24.64 26.9395Z" fill="#FF5900"/>
<path d="M46.2 28.1346H35.7496V19.0994H37.2942C38.0596 19.0994 38.6802 18.4788 38.6802 17.7134C38.6802 16.948 38.0596 16.3274 37.2942 16.3274H26.026V13.2613H34.0325C34.4575 13.2613 34.8595 13.0672 35.1213 12.7315C35.3846 12.3973 35.4785 11.9615 35.38 11.5472L34.6808 8.6736L35.38 5.79996C35.4785 5.38724 35.3846 4.94988 35.1228 4.6157C34.8595 4.28152 34.4575 4.08594 34.0325 4.08594H24.64C23.8746 4.08594 23.254 4.70656 23.254 5.47194V16.3259H11.9859C11.2205 16.3259 10.5999 16.9465 10.5999 17.7119C10.5999 18.4772 11.2205 19.0979 11.9859 19.0979H13.5305V28.133H3.08003C2.31465 28.133 1.69403 28.7537 1.69403 29.519C1.69403 30.2844 2.31465 30.905 3.08003 30.905H4.23503V42.7476C4.23503 44.0967 5.33305 45.1962 6.68363 45.1962C18.6556 45.1932 30.626 45.1932 42.5964 45.1962C43.9455 45.1962 45.045 44.0982 45.045 42.7476V30.905H46.2C46.9654 30.905 47.586 30.2844 47.586 29.519C47.586 28.7537 46.9654 28.1346 46.2 28.1346ZM32.2692 10.4908H26.026V6.85948H32.2692L31.9073 8.34712C31.8565 8.56272 31.8565 8.78602 31.9073 9.00162L32.2692 10.4908ZM32.976 19.0994V42.4212H29.5465V35.14C29.5465 33.8187 28.47 32.7423 27.1472 32.7423H22.1298C20.807 32.7423 19.732 33.8172 19.732 35.14V42.4212H16.3009V19.0994H32.976ZM26.7745 42.4212H22.5056V35.5158H26.7745V42.4212ZM7.00703 30.905H13.532V42.4242H7.00703V30.905ZM42.2715 42.4242H35.7496V30.905H42.2715V42.4242Z" fill="#FF5900"/>
</svg>
