<svg width="47" height="47" viewBox="0 0 47 47" fill="none" xmlns="http://www.w3.org/2000/svg">
<g clip-path="url(#clip0_2062_2566)">
<path d="M40.6285 1.37646H25.5707V16.4342H40.6285V1.37646Z" stroke="#FF5900" stroke-width="2.75447" stroke-miterlimit="10" stroke-linecap="round" stroke-linejoin="round"/>
<path d="M3.90221 16.4355L18.96 16.4355L18.96 1.37777L3.90221 1.37777L3.90221 16.4355Z" stroke="#FF5900" stroke-width="2.75447" stroke-miterlimit="10" stroke-linecap="round" stroke-linejoin="round"/>
<path d="M3.90221 38.1035L18.96 38.1035L18.96 23.0457L3.90221 23.0457L3.90221 38.1035Z" stroke="#FF5900" stroke-width="2.75447" stroke-miterlimit="10" stroke-linecap="round" stroke-linejoin="round"/>
<path d="M42.9009 39.0817C41.9782 41.9078 40.4338 45.6318 40.4338 45.6318L27.0278 45.6245C26.7397 44.9737 24.8919 40.639 24.6057 38.4509C23.9327 35.1492 26.4081 32.0412 29.7768 31.9504L29.7942 31.9531V24.6978C29.7942 23.1765 31.0274 21.9434 32.5487 21.9434C34.07 21.9434 35.3032 23.1765 35.3032 24.6978V32.7611L35.3895 32.7739L39.8692 33.7646C42.2536 34.2917 43.6602 36.7606 42.9009 39.0817Z" stroke="#FF5900" stroke-width="2.75447" stroke-miterlimit="10" stroke-linecap="round" stroke-linejoin="round"/>
<path d="M29.7942 31.9521V37.3693" stroke="#FF5900" stroke-width="2.75447" stroke-miterlimit="10" stroke-linecap="round" stroke-linejoin="round"/>
<path d="M30.7812 8.24047L32.5257 9.98497L35.4179 7.09277" stroke="#FF5900" stroke-width="2.75447" stroke-miterlimit="10" stroke-linecap="round" stroke-linejoin="round"/>
</g>
<defs>
<clipPath id="clip0_2062_2566">
<rect width="47.0096" height="47.0096" fill="white"/>
</clipPath>
</defs>
</svg>
