<svg preserveAspectRatio="xMidYMid meet" width="122.074" height="47.222" overflow="visible" style="display: block;" viewBox="0 0 122.074 47.2224" fill="none" xmlns="http://www.w3.org/2000/svg">
<g id="Logo An&#195;&#161;huac M&#195;&#169;xico Versi&#195;&#179;n Comercial" clip-path="url(#clip0_0_13)">
<path id="Vector" d="M10.4928 43.9199H12.24V32.9471H10.4928V29.9135H15.7056L20.8608 37.2959L26.0928 29.9135H31.1808V32.9471H29.4336V43.9199H31.1808V46.9823H24.1344V43.9199H26.112V34.9151L20.784 42.4703L15.5808 35.0303V43.9199H17.568V46.9823H10.4928V43.9199Z" fill="var(--fill-0, #FF5900)"/>
<path id="Vector_2" d="M41.2416 24.5281H44.6592L41.0016 28.5313H38.4864L41.2512 24.5281H41.2416ZM32.4 43.9201H34.1664V32.9473H32.4V29.9041H46.5408V35.3569H43.2672V32.9281H37.5264V36.8065H42.3744V39.8689H37.5264V43.9201H43.2672V41.4433H46.5408V46.9921H32.4V43.9297V43.9201Z" fill="var(--fill-0, #FF5900)"/>
<path id="Vector_3" d="M47.7984 43.9199H49.3248L54.0768 38.2367L49.6896 32.9471H48.1632V29.9135H55.0464V32.9471H53.616L56.1792 36.1823L58.752 32.9471H57.3216V29.9135H64.1952V32.9471H62.6208L58.1952 38.2367L62.9376 43.9199H64.464V46.9823H57.4944V43.9199H58.9152L56.1312 40.3871L53.328 43.9199H54.7776V46.9823H47.7984V43.9199Z" fill="var(--fill-0, #FF5900)"/>
<path id="Vector_4" d="M65.5488 43.9199H67.824V32.9471H65.5488V29.9135H73.5456V32.9471H71.2608V43.9199H73.5456V46.9823H65.5488V43.9199Z" fill="var(--fill-0, #FF5900)"/>
<path id="Vector_5" d="M74.9664 38.4479C74.9664 33.4655 78.8448 29.6735 83.568 29.6735C86.0832 29.6735 87.7536 30.5855 88.464 32.2943V29.9135H91.6896V36.1631H88.56C88.032 34.0607 86.5248 32.8895 83.8848 32.8895C80.7168 32.8895 78.48 35.3471 78.48 38.4575C78.48 41.5679 80.784 43.9295 84 43.9295C86.4192 43.9295 88.1376 42.6431 89.0112 40.7903L92.1312 42.4031C90.6336 45.2543 87.7248 47.2223 84.0192 47.2223C78.6912 47.2223 74.9568 43.2959 74.9568 38.4479" fill="var(--fill-0, #FF5900)"/>
<path id="Vector_6" d="M108.096 38.4479C108.096 35.4335 105.677 32.9279 102.499 32.9279C99.3216 32.9279 96.9504 35.4335 96.9504 38.4479C96.9504 41.4623 99.3504 43.9487 102.499 43.9487C105.648 43.9487 108.096 41.4431 108.096 38.4479ZM93.4656 38.4479C93.4656 33.6095 97.488 29.6735 102.499 29.6735C107.51 29.6735 111.581 33.5999 111.581 38.4479C111.581 43.2959 107.558 47.2223 102.499 47.2223C97.44 47.2223 93.4656 43.2959 93.4656 38.4479Z" fill="var(--fill-0, #FF5900)"/>
<path id="Vector_7" d="M6.4704 14.6399L8.4288 8.89911L10.3872 14.6399H6.4704ZM15.3024 19.7087L11.4528 8.87991H13.4592V5.88471H3.408V8.87991H5.4144L1.5648 19.7087H0V22.7039H6.5184V19.7087H4.7712L5.5584 17.3567H11.3184L12.1056 19.7087H10.3584V22.7039H16.8768V19.7087H15.312H15.3024Z" fill="var(--fill-0, #FF5900)"/>
<path id="Vector_8" d="M94.9536 14.6399L96.912 8.89911L98.8704 14.6399H94.9536ZM103.776 19.7087L99.9264 8.87991H101.933V5.88471H91.8912V8.87991H93.8976L90.048 19.7087H88.4832V22.7039H95.0016V19.7087H93.2544L94.0416 17.3567H99.8016L100.589 19.7087H98.8416V22.7039H105.36V19.7087H103.795H103.776Z" fill="var(--fill-0, #FF5900)"/>
<path id="Vector_9" d="M18.432 19.6799H20.0928V8.87991H18.432V5.88471H23.5488L30.8736 17.3567V8.87991H29.1456V5.88471H35.6256V8.87991H33.9648V22.7039H30.7872L23.2224 10.8383V19.6799H24.9504V22.7039H18.432V19.6799Z" fill="var(--fill-0, #FF5900)"/>
<path id="Vector_10" d="M53.9616 19.6799H55.6224V8.87991H53.9616V5.88471H60.576V8.87991H58.848V12.7295H65.3952V8.87991H63.6672V5.88471H70.2528V8.87991H68.592V19.6799H70.2528V22.7039H63.6672V19.6799H65.3952V15.6767H58.848V19.6799H60.576V22.7039H53.9616V19.6799Z" fill="var(--fill-0, #FF5900)"/>
<path id="Vector_11" d="M73.44 16.1761V8.87054H71.8272V5.87534H78.4608V8.87054H76.7328V16.2241C76.7328 18.3169 78.096 19.7761 80.1408 19.7761C82.1856 19.7761 83.568 18.3745 83.568 16.2241V8.87054H81.8592V5.87534H88.4736V8.87054H86.8608V16.1761C86.8608 20.5345 84.2592 22.9249 80.1312 22.9249C76.0032 22.9249 73.4304 20.4385 73.4304 16.1761" fill="var(--fill-0, #FF5900)"/>
<path id="Vector_12" d="M105.734 14.2943C105.734 9.38872 109.421 5.65432 113.914 5.65432C116.314 5.65432 117.898 6.55672 118.57 8.23672V5.88472H121.632V12.0383H118.656C118.147 9.96472 116.717 8.81272 114.211 8.81272C111.197 8.81272 109.075 11.2319 109.075 14.2943C109.075 17.3567 111.264 19.6799 114.326 19.6799C116.63 19.6799 118.262 18.4127 119.098 16.5887L122.074 18.1823C120.643 20.9951 117.878 22.9247 114.355 22.9247C109.286 22.9247 105.734 19.0559 105.734 14.2847" fill="var(--fill-0, #FF5900)"/>
<path id="Vector_13" d="M42.0096 14.6399L43.968 8.89911L45.9264 14.6399H42.0096ZM50.832 19.7087L46.9824 8.87991H48.9888V5.88471H38.9472V8.87991H40.9536L37.104 19.7087H35.5392V22.7039H42.0576V19.7087H40.3104L41.0976 17.3567H46.8576L47.6448 19.7087H45.8976V22.7039H52.416V19.7087H50.8512H50.832Z" fill="var(--fill-0, #FF5900)"/>
<path id="Vector_14" d="M41.9904 4.31042L44.6784 2.44141e-05H48.8352L45.024 4.31042H41.9904Z" fill="var(--fill-0, #FF5900)"/>
</g>
<defs>
<clipPath id="clip0_0_13">
<rect width="122.074" height="47.2224" fill="white"/>
</clipPath>
</defs>
</svg>
