<svg width="200" height="200" viewBox="0 0 200 200" fill="none" xmlns="http://www.w3.org/2000/svg">
<g clip-path="url(#clip0_2501_1838)">
<path d="M200 173.432C200 188.116 188.116 200 173.447 200H26.5828C11.9144 200 0 188.116 0 173.432V26.5978C0 11.8844 11.8994 0 26.5828 0H173.462C188.116 0 200.015 11.8844 200.015 26.5978V173.432H200Z" fill="#FF5900"/>
<path d="M153.48 151.939L121.015 60.575H138.108V44.9336H67.894V60.575H84.9872L52.5221 151.939H41.5057V167.58H84.4334V151.939H69.4207L77.9973 126.209H128.02L136.596 151.939H121.584V167.58H164.511V151.939H153.495H153.48ZM82.5625 112.693L100.359 60.56H105.643L123.44 112.693H82.5774H82.5625Z" fill="#FF5900"/>
<path d="M82.323 112.783L100.314 59.9164H105.658L123.649 112.783H82.323ZM154.064 152.582L121.224 59.9313H138.512V44.0654H67.4899V59.9313H84.7777L51.9383 152.582H40.7873V168.448H84.2089V152.582H69.0166L77.6979 126.478H128.289L136.971 152.582H121.778V168.448H165.2V152.582H154.049H154.064Z" fill="white"/>
<path d="M165.2 168.433H121.778V152.567H136.971L128.289 126.463H77.683L69.0016 152.567H84.194V168.433H40.7723V152.567H51.9233L84.7627 59.916H67.4749V44.0501H138.497V59.916H121.209L154.049 152.567H165.2V168.433ZM159.452 144.933L132.031 67.5795H146.131V36.4165H59.8563V67.5795H73.956L46.5349 144.933H33.1387V176.096H91.8276V144.933H79.5988L83.1911 134.141H122.796L126.388 144.933H114.16V176.096H172.848V144.933H159.452Z" fill="black"/>
<path d="M92.9951 105.134L102.994 75.7671L112.992 105.134H92.9951ZM105.658 59.9312H100.314L82.323 112.797H123.649L105.658 59.9312Z" fill="black"/>
</g>
<defs>
<clipPath id="clip0_2501_1838">
<rect width="200" height="200" fill="white"/>
</clipPath>
</defs>
</svg>
