<svg width="48" height="48" viewBox="0 0 48 48" fill="none" xmlns="http://www.w3.org/2000/svg">
<path d="M26.8596 19.7342C25.7767 19.7342 24.9377 20.5733 24.9377 21.6092C24.9377 22.6451 25.7767 23.4842 26.8596 23.4842C27.8486 23.4842 28.6877 22.6451 28.6877 21.6092C28.6877 20.5733 27.8486 19.7342 26.8596 19.7342ZM13.7346 19.7342C12.6517 19.7342 11.8127 20.5733 11.8127 21.6092C11.8127 22.6451 12.6517 23.4842 13.7346 23.4842C14.7236 23.4842 15.5627 22.6451 15.5627 21.6092C15.5627 20.5733 14.7236 19.7342 13.7346 19.7342Z" fill="#5D428C"/>
<path d="M41.9076 16.1701C39.6529 13.0763 36.5029 11.0091 33.0482 10.0763V10.081C32.2466 9.19038 31.342 8.37007 30.3295 7.63882C22.656 2.06069 11.8841 3.76225 6.28258 11.4357C1.76852 17.6701 1.9607 26.056 6.56383 32.0138L6.60133 38.2294C6.60133 38.3794 6.62477 38.5294 6.67164 38.6701C6.92008 39.4623 7.76383 39.8982 8.55133 39.6498L14.4857 37.7794C16.056 38.3373 17.6779 38.656 19.2904 38.7451L19.267 38.7638C23.4435 41.806 28.9185 42.7201 33.9388 41.0607L39.8966 43.0013C40.0466 43.0482 40.2013 43.0763 40.3607 43.0763C41.1904 43.0763 41.8607 42.406 41.8607 41.5763V35.2951C45.9904 29.6888 46.0982 21.9404 41.9076 16.1701ZM15.142 34.4513L14.5795 34.2169L9.93883 35.6701L9.89195 30.7951L9.51695 30.3732C5.55133 25.5357 5.28883 18.5654 9.00133 13.4513C13.5201 7.25444 22.1826 5.88569 28.3607 10.3576C34.5576 14.8623 35.931 23.5107 31.4545 29.6701C27.6998 34.8216 20.9779 36.7248 15.142 34.4513ZM38.8138 33.6544L38.4388 34.1232L38.4857 38.9982L33.892 37.4513L33.3295 37.6857C30.7045 38.6607 27.906 38.7404 25.3138 38.0138L25.3045 38.0091C28.7685 36.9451 31.9091 34.7888 34.1732 31.6857C37.7545 26.7498 38.3357 20.5482 36.2545 15.2607L36.2826 15.2794C37.3607 16.0529 38.3498 17.0185 39.1888 18.1857C42.592 22.8544 42.3998 29.2107 38.8138 33.6544Z" fill="#5D428C"/>
<path d="M20.2971 19.7342C19.2142 19.7342 18.3752 20.5733 18.3752 21.6092C18.3752 22.6451 19.2142 23.4842 20.2971 23.4842C21.2861 23.4842 22.1252 22.6451 22.1252 21.6092C22.1252 20.5733 21.2861 19.7342 20.2971 19.7342Z" fill="#5D428C"/>
</svg>
