<svg width="48" height="48" viewBox="0 0 48 48" fill="none" xmlns="http://www.w3.org/2000/svg">
<path d="M40.0594 13.5281L29.9719 3.44063C29.6906 3.15938 29.3109 3 28.9125 3H9C8.17031 3 7.5 3.67031 7.5 4.5V43.5C7.5 44.3297 8.17031 45 9 45H39C39.8297 45 40.5 44.3297 40.5 43.5V14.5922C40.5 14.1937 40.3406 13.8094 40.0594 13.5281ZM37.0406 15.2812H28.2188V6.45938L37.0406 15.2812ZM37.125 41.625H10.875V6.375H25.0312V16.5C25.0312 17.0221 25.2387 17.5229 25.6079 17.8921C25.9771 18.2613 26.4779 18.4688 27 18.4688H37.125V41.625ZM23.625 28.9688H15C14.7937 28.9688 14.625 29.1375 14.625 29.3438V31.5938C14.625 31.8 14.7937 31.9688 15 31.9688H23.625C23.8313 31.9688 24 31.8 24 31.5938V29.3438C24 29.1375 23.8313 28.9688 23.625 28.9688ZM14.625 22.9688V25.2188C14.625 25.425 14.7937 25.5938 15 25.5938H33C33.2063 25.5938 33.375 25.425 33.375 25.2188V22.9688C33.375 22.7625 33.2063 22.5938 33 22.5938H15C14.7937 22.5938 14.625 22.7625 14.625 22.9688Z" fill="#FF5900"/>
</svg>
