<svg width="34" height="34" viewBox="0 0 34 34" fill="none" xmlns="http://www.w3.org/2000/svg">
<g clip-path="url(#clip0_2041_9834)">
<path d="M5.4494 0.853298H21.8345L22.2317 0.954094L22.2835 0.984614L29.2408 7.93631L29.383 8.40174V32.3132C29.383 32.7726 29.0103 33.1457 28.5505 33.1457H5.4494C4.9896 33.1457 4.61693 32.7726 4.61693 32.3132V1.68577C4.61693 1.22636 4.9896 0.853298 5.4494 0.853298ZM16.1916 8.34753C17.1465 8.88283 16.3325 10.3333 15.3784 9.79802C13.8801 8.95672 11.965 8.71938 10.9542 10.0691C10.751 10.3401 10.6229 10.6449 10.5836 10.9509C10.4201 12.2119 11.6863 12.6653 12.9525 13.1183C14.8483 13.7961 16.7442 14.4748 16.4092 17.0629C16.204 18.6484 14.9391 19.8752 13.3548 20.241V21.7048C13.3548 22.8011 11.6899 22.8011 11.6899 21.7048V20.3237C10.8727 20.2282 10.0246 19.9463 9.15555 19.4584C8.2002 18.9222 9.0146 17.4726 9.96835 18.0079C11.2948 18.752 13.1476 19.1419 14.2737 17.8794C14.5467 17.5725 14.717 17.2139 14.7636 16.8545C14.927 15.592 13.66 15.1386 12.3931 14.6856C10.498 14.0077 8.60299 13.3295 8.9379 10.7429C9.12825 9.27195 10.2551 8.08128 11.6899 7.64316V6.1007C11.6899 5.0044 13.3548 5.0044 13.3548 6.1007V7.45522C14.2471 7.50823 15.2073 7.79415 16.1916 8.34753ZM24.2641 14.7619C25.36 14.7619 25.36 16.4268 24.2641 16.4268H19.6435C18.5476 16.4268 18.5476 14.7619 19.6435 14.7619H24.2641ZM24.2641 20.3824C25.36 20.3824 25.36 22.0473 24.2641 22.0473H19.6435C18.5476 22.0473 18.5476 20.3824 19.6435 20.3824H24.2641ZM24.2641 26.0028C25.36 26.0028 25.36 27.6678 24.2641 27.6678H9.73583C8.63993 27.6678 8.63993 26.0028 9.73583 26.0028H24.2641ZM27.718 9.23461H21.8345C21.3751 9.23461 21.0021 8.86154 21.0021 8.40174V2.51864H6.28187V31.4804H27.718V9.23461ZM22.6674 3.69566V7.56927H26.5406L22.6674 3.69566Z" fill="white"/>
</g>
<defs>
<clipPath id="clip0_2041_9834">
<rect width="33.6" height="33.6" fill="white" transform="scale(1.0119)"/>
</clipPath>
</defs>
</svg>
