<svg width="34" height="34" viewBox="0 0 34 34" fill="none" xmlns="http://www.w3.org/2000/svg">
<g clip-path="url(#clip0_2041_9843)">
<path d="M31.9655 18.899C31.4131 18.3944 30.6961 18.1166 29.9466 18.1166C29.0491 18.1093 28.2183 18.5306 27.6296 19.1941C27.1669 18.2178 26.1305 17.5311 25.0404 17.505C24.2102 17.4742 23.4007 17.7924 22.8141 18.3785L18.5118 22.3625H15.8186C14.4817 21.2761 12.8159 20.6625 11.0851 20.6263C9.24673 20.5881 7.45177 21.2041 6.02636 22.3625H2.06018C1.5092 22.3625 1.06249 22.8084 1.06249 23.3586V30.345C1.06249 30.8951 1.50914 31.3411 2.06018 31.3411H4.76052C5.38587 31.3411 6.00969 31.4158 6.61538 31.5633C7.22293 31.7107 7.81122 31.9303 8.36472 32.2166C10.2545 33.1923 12.2881 33.7742 14.4089 33.9463C14.8458 33.9818 15.2815 33.9994 15.7162 33.9994C17.3916 33.9994 19.0473 33.7365 20.6531 33.214C21.6767 32.8817 22.6553 32.4172 23.5609 31.834C24.4637 31.2538 25.2914 30.5559 26.0182 29.7626L32.1558 23.1198C33.2685 21.9037 33.1829 20.01 31.9655 18.899ZM24.1862 19.825C24.5507 19.4091 25.2416 19.3834 25.6298 19.7805C25.9909 20.1349 26.0293 20.6917 25.7262 21.0898L22.7422 24.0615C22.5974 23.7598 22.4007 23.4816 22.1567 23.238C21.8768 22.9585 21.5512 22.7414 21.1969 22.5932L24.1862 19.825ZM30.6859 21.7728L24.5489 28.4149C23.9352 29.0847 23.2395 29.6715 22.4802 30.1594C21.7184 30.65 20.8961 31.0404 20.0355 31.3197C18.2652 31.8957 16.4265 32.1114 14.5705 31.9607C12.7145 31.8101 10.935 31.3008 9.28186 30.4474C8.58751 30.0882 7.84887 29.8124 7.08733 29.6276C6.32791 29.4427 5.54504 29.3489 4.76052 29.3489H3.05786V24.3546H6.38535C6.72136 24.3698 7.00943 24.1543 7.24611 23.9402C8.31146 23.0587 9.66024 22.5893 11.0433 22.6181C12.4267 22.647 13.7544 23.1726 14.7817 24.0981C14.965 24.2633 15.2031 24.3546 15.4501 24.3546H20.0406C20.5762 24.3435 21.0494 24.816 21.0383 25.3507C21.0492 25.8855 20.5766 26.3579 20.0406 26.3468H13.2693C12.7183 26.3468 12.2716 26.7928 12.2716 27.3429C12.2716 27.893 12.7182 28.339 13.2693 28.339H20.0406C20.5276 28.339 21.0117 28.219 21.4409 27.992C21.7453 27.8309 22.0174 27.6188 22.2469 27.3686L29.178 20.466C29.527 20.0371 30.2166 19.9869 30.619 20.3691C31.025 20.7396 31.0535 21.3709 30.6859 21.7728Z" fill="white"/>
<path d="M4.16897 7.27342L7.95532 9.24197V15.089C7.95532 15.4775 8.18163 15.8307 8.53504 15.9934C10.5792 16.9351 12.7561 17.4125 15.0055 17.4125C17.2548 17.4125 19.4318 16.9351 21.4759 15.9934C21.8292 15.8307 22.0556 15.4776 22.0556 15.089V9.24197L24.3835 8.03165V11.7843C24.3835 12.3344 24.8301 12.7804 25.3812 12.7804C25.9322 12.7804 26.3789 12.3344 26.3789 11.7843V6.38995C26.3813 6.02498 26.1671 5.6731 25.842 5.50648L15.4662 0.112106C15.1773 -0.0380387 14.8334 -0.0380387 14.5446 0.112106L4.16897 5.50648C3.46353 5.84496 3.46366 6.93495 4.16897 7.27342ZM20.0602 14.4356C18.4503 15.0894 16.753 15.4203 15.0055 15.4203C13.258 15.4203 11.5606 15.0894 9.95069 14.4356V10.2793L14.5447 12.6678C14.8335 12.8179 15.1775 12.8179 15.4663 12.6678L20.0602 10.2793V14.4356ZM15.0054 2.11857L23.221 6.38989L15.0054 10.6613L6.78982 6.38995L15.0054 2.11857Z" fill="white"/>
</g>
<defs>
<clipPath id="clip0_2041_9843">
<rect width="33.0301" height="33.0301" fill="white" transform="scale(1.02936)"/>
</clipPath>
</defs>
</svg>
