<svg width="48" height="48" viewBox="0 0 48 48" fill="none" xmlns="http://www.w3.org/2000/svg">
<path d="M26.8593 19.7342C25.7765 19.7342 24.9374 20.5733 24.9374 21.6092C24.9374 22.6451 25.7765 23.4842 26.8593 23.4842C27.8484 23.4842 28.6874 22.6451 28.6874 21.6092C28.6874 20.5733 27.8484 19.7342 26.8593 19.7342ZM13.7343 19.7342C12.6515 19.7342 11.8124 20.5733 11.8124 21.6092C11.8124 22.6451 12.6515 23.4842 13.7343 23.4842C14.7234 23.4842 15.5624 22.6451 15.5624 21.6092C15.5624 20.5733 14.7234 19.7342 13.7343 19.7342Z" fill="#5D428C"/>
<path d="M41.9073 16.1701C39.6526 13.0763 36.5026 11.0091 33.048 10.0763V10.081C32.2464 9.19038 31.3417 8.37007 30.3292 7.63882C22.6558 2.06069 11.8839 3.76225 6.28233 11.4357C1.76827 17.6701 1.96046 26.056 6.56358 32.0138L6.60108 38.2294C6.60108 38.3794 6.62452 38.5294 6.6714 38.6701C6.91983 39.4623 7.76358 39.8982 8.55108 39.6498L14.4855 37.7794C16.0558 38.3373 17.6776 38.656 19.2901 38.7451L19.2667 38.7638C23.4433 41.806 28.9183 42.7201 33.9386 41.0607L39.8964 43.0013C40.0464 43.0482 40.2011 43.0763 40.3605 43.0763C41.1901 43.0763 41.8605 42.406 41.8605 41.5763V35.2951C45.9901 29.6888 46.098 21.9404 41.9073 16.1701ZM15.1417 34.4513L14.5792 34.2169L9.93858 35.6701L9.89171 30.7951L9.51671 30.3732C5.55108 25.5357 5.28858 18.5654 9.00108 13.4513C13.5198 7.25444 22.1823 5.88569 28.3605 10.3576C34.5573 14.8623 35.9308 23.5107 31.4542 29.6701C27.6995 34.8216 20.9776 36.7248 15.1417 34.4513ZM38.8136 33.6544L38.4386 34.1232L38.4855 38.9982L33.8917 37.4513L33.3292 37.6857C30.7042 38.6607 27.9058 38.7404 25.3136 38.0138L25.3042 38.0091C28.7683 36.9451 31.9089 34.7888 34.173 31.6857C37.7542 26.7498 38.3355 20.5482 36.2542 15.2607L36.2823 15.2794C37.3605 16.0529 38.3495 17.0185 39.1886 18.1857C42.5917 22.8544 42.3995 29.2107 38.8136 33.6544Z" fill="#5D428C"/>
<path d="M20.2968 19.7342C19.214 19.7342 18.3749 20.5733 18.3749 21.6092C18.3749 22.6451 19.214 23.4842 20.2968 23.4842C21.2859 23.4842 22.1249 22.6451 22.1249 21.6092C22.1249 20.5733 21.2859 19.7342 20.2968 19.7342Z" fill="#5D428C"/>
</svg>
