<svg width="44" height="44" viewBox="0 0 44 44" fill="none" xmlns="http://www.w3.org/2000/svg">
<path d="M35.4443 1.22242H8.5555C6.53885 1.22242 4.88885 2.87241 4.88885 4.88907V39.1111C4.88885 41.1278 6.53885 42.7778 8.5555 42.7778H35.4443C37.4609 42.7778 39.1109 41.1278 39.1109 39.1111V4.88907C39.1109 2.87241 37.4609 1.22242 35.4443 1.22242ZM36.6665 39.1111C36.6665 39.7833 36.1165 40.3333 35.4443 40.3333H8.5555C7.88329 40.3333 7.33329 39.7833 7.33329 39.1111V4.88907C7.33329 4.21685 7.88329 3.66685 8.5555 3.66685H35.4443C36.1165 3.66685 36.6665 4.21685 36.6665 4.88907V39.1111ZM32.9998 6.11128H10.9999C10.3277 6.11128 9.77772 6.66128 9.77772 7.3335V19.5557C9.77772 20.2279 10.3277 20.7779 10.9999 20.7779H32.9998C33.6721 20.7779 34.2221 20.2279 34.2221 19.5557V7.3335C34.2221 6.66128 33.6721 6.11128 32.9998 6.11128ZM31.7776 18.3334H12.2222V8.55572H31.7776V18.3334ZM15.8888 22.0001H10.9999C10.3277 22.0001 9.77772 22.5501 9.77772 23.2223V28.1112C9.77772 28.7834 10.3277 29.3334 10.9999 29.3334H15.8888C16.561 29.3334 17.111 28.7834 17.111 28.1112V23.2223C17.111 22.5501 16.561 22.0001 15.8888 22.0001ZM14.6666 26.889H12.2222V24.4445H14.6666V26.889ZM19.5555 29.3334H24.4443C25.1165 29.3334 25.6665 28.7834 25.6665 28.1112V23.2223C25.6665 22.5501 25.1165 22.0001 24.4443 22.0001H19.5555C18.8832 22.0001 18.3332 22.5501 18.3332 23.2223V28.1112C18.3332 28.7834 18.8832 29.3334 19.5555 29.3334ZM20.7777 24.4445H23.2221V26.889H20.7777V24.4445ZM32.9998 22.0001H28.111C27.4388 22.0001 26.8888 22.5501 26.8888 23.2223V28.1112C26.8888 28.7834 27.4388 29.3334 28.111 29.3334H32.9998C33.6721 29.3334 34.2221 28.7834 34.2221 28.1112V23.2223C34.2221 22.5501 33.6721 22.0001 32.9998 22.0001ZM31.7776 26.889H29.3332V24.4445H31.7776V26.889ZM32.9998 30.5556H19.5555C18.8832 30.5556 18.3332 31.1056 18.3332 31.7778V36.6667C18.3332 37.3389 18.8832 37.8889 19.5555 37.8889H32.9998C33.6721 37.8889 34.2221 37.3389 34.2221 36.6667V31.7778C34.2221 31.1056 33.6721 30.5556 32.9998 30.5556ZM31.7776 35.4445H20.7777V33H31.7776V35.4445ZM15.8888 30.5556H10.9999C10.3277 30.5556 9.77772 31.1056 9.77772 31.7778V36.6667C9.77772 37.3389 10.3277 37.8889 10.9999 37.8889H15.8888C16.561 37.8889 17.111 37.3389 17.111 36.6667V31.7778C17.111 31.1056 16.561 30.5556 15.8888 30.5556ZM14.6666 35.4445H12.2222V33H14.6666V35.4445Z" fill="#FF5900"/>
</svg>
