<svg width="50" height="50" viewBox="0 0 50 50" fill="none" xmlns="http://www.w3.org/2000/svg">
<path d="M24.9999 27.333C26.0432 27.333 26.8889 26.4872 26.8889 25.4439C26.8889 24.4006 26.0432 23.5549 24.9999 23.5549C23.9566 23.5549 23.1108 24.4006 23.1108 25.4439C23.1108 26.4872 23.9566 27.333 24.9999 27.333Z" fill="#FF5900"/>
<path d="M46.8748 28.5455H36.2717V19.3783H37.8389C38.6154 19.3783 39.2451 18.7487 39.2451 17.9721C39.2451 17.1955 38.6154 16.5659 37.8389 16.5659H26.4061V13.4549H34.5295C34.9608 13.4549 35.3686 13.2581 35.6342 12.9174C35.9014 12.5784 35.9967 12.1362 35.8967 11.7159L35.1873 8.80027L35.8967 5.88466C35.9967 5.46592 35.9014 5.02217 35.6358 4.68311C35.3686 4.34405 34.9608 4.14561 34.5295 4.14561H24.9999C24.2233 4.14561 23.5936 4.7753 23.5936 5.55185V16.5643H12.1609C11.3843 16.5643 10.7547 17.194 10.7547 17.9705C10.7547 18.7471 11.3843 19.3768 12.1609 19.3768H13.7281V28.5439H3.12501C2.34846 28.5439 1.71877 29.1736 1.71877 29.9502C1.71877 30.7267 2.34846 31.3564 3.12501 31.3564H4.29688V43.372C4.29688 44.7407 5.41094 45.8563 6.78124 45.8563C18.9281 45.8532 31.0733 45.8532 43.2185 45.8563C44.5873 45.8563 45.7029 44.7423 45.7029 43.372V31.3564H46.8748C47.6513 31.3564 48.281 30.7267 48.281 29.9502C48.281 29.1736 47.6513 28.5455 46.8748 28.5455ZM32.7405 10.644H26.4061V6.95966H32.7405L32.3733 8.46903C32.3217 8.68777 32.3217 8.91434 32.3733 9.13308L32.7405 10.644ZM33.4577 19.3783V43.0407H29.978V35.6532C29.978 34.3126 28.8858 33.2205 27.5436 33.2205H22.453C21.1108 33.2205 20.0202 34.3111 20.0202 35.6532V43.0407H16.539V19.3783H33.4577ZM27.1655 43.0407H22.8343V36.0345H27.1655V43.0407ZM7.10937 31.3564H13.7296V43.0438H7.10937V31.3564ZM42.8889 43.0438H36.2717V31.3564H42.8889V43.0438Z" fill="#FF5900"/>
</svg>
