<svg width="28" height="28" viewBox="0 0 28 28" fill="none" xmlns="http://www.w3.org/2000/svg">
<g clip-path="url(#clip0_2041_9860)">
<path d="M25.55 24.3833L23.8 23.9167L23.6833 23.5667C24.15 23.1 24.5 22.4 24.6167 21.8167C24.9667 21.7 25.2 21.35 25.2 21L25.3167 19.95C25.3167 19.6 25.3167 19.3667 25.0833 19.1333C24.9667 19.0167 24.9667 19.0167 24.85 18.9V18.3167L24.9667 18.2C25.3167 17.85 25.6667 17.15 25.0833 16.2167C24.7333 15.75 24.15 15.1667 22.8667 15.1667C22.5167 15.1667 21.7 15.1667 20.8833 15.6333C18.4333 15.75 18.2 17.0333 18.2 17.9667C18.2 18.2 18.2 18.55 18.3167 18.7833C18.2 18.7833 18.2 18.9 18.0833 19.0167C17.85 19.25 17.7333 19.6 17.85 19.8333L17.9667 20.8833C17.9667 21.2333 18.2 21.5833 18.6667 21.7C18.7833 22.2833 19.1333 22.9833 19.4833 23.45L19.3667 23.8L17.6167 24.2667C16.2167 24.6167 15.1667 25.9 15.1667 27.3C15.1667 27.4167 15.2833 27.65 15.2833 27.7667C15.2833 27.8833 15.5167 27.8833 15.75 27.8833H27.4167C27.7667 27.8833 28 27.65 28 27.3C28 25.9 27.0667 24.7333 25.55 24.3833ZM16.45 26.8333C16.6833 26.1333 17.15 25.6667 17.85 25.4333L19.95 24.9667C20.1833 24.9667 20.3 24.7333 20.4167 24.5L20.65 23.45C20.65 23.2167 20.65 22.9833 20.5333 22.8667C20.0667 22.4 19.8333 21.8167 19.7167 21.2333C19.7167 20.8833 19.4833 20.7667 19.1333 20.7667L18.9 19.8333C19.0167 19.8333 19.25 19.7167 19.3667 19.6C19.4833 19.4833 19.4833 19.25 19.4833 19.1333C19.4833 18.7833 19.3667 18.2 19.3667 17.9667C19.3667 17.3833 19.3667 16.8 21.1167 16.8C21.2333 16.8 21.35 16.8 21.4667 16.6833C22.05 16.3333 22.6333 16.3333 22.9833 16.3333C23.9167 16.3333 24.15 16.6833 24.15 16.8C24.3833 17.15 24.2667 17.2667 24.2667 17.3833L24.0333 17.6167C23.9167 17.7333 23.9167 17.85 23.9167 17.9667L23.8 19.25C23.8 19.3667 23.8 19.4833 23.9167 19.6C24.0333 19.7167 24.15 19.7167 24.2667 19.7167L24.15 20.65C23.8 20.65 23.5667 20.8833 23.5667 21.2333C23.5667 21.8167 23.2167 22.5167 22.75 22.9833C22.6333 23.1 22.5167 23.3333 22.5167 23.5667L22.75 24.5C22.75 24.7333 22.9833 24.85 23.2167 24.9667L25.3167 25.4333C26.0167 25.6667 26.6 26.1333 26.7167 26.8333H16.45ZM16.5667 20.4167C16.5667 20.0667 16.3333 19.8333 15.9833 19.8333H14V14H25.6667C25.6667 14.2333 25.6667 14.4667 25.6667 14.7C25.6667 15.05 25.9 15.2833 26.1333 15.2833C26.4833 15.2833 26.7167 15.05 26.7167 14.8167C26.7167 14.35 26.8333 13.8833 26.8333 13.4167C26.8333 6.06667 20.7667 0 13.4167 0C6.06667 0 0 6.06667 0 13.4167C0 20.7667 6.06667 26.8333 13.4167 26.8333C13.7667 26.8333 14 26.6 14 26.25V21H15.9833C16.2167 21 16.5667 20.7667 16.5667 20.4167ZM25.6667 12.8333H21C21 10.7333 20.65 8.75 20.0667 7H23.8C24.85 8.75 25.55 10.7333 25.6667 12.8333ZM22.9833 5.83333H19.7167C19.1333 4.2 18.2 2.8 17.2667 1.75C19.6 2.56667 21.5833 3.96667 22.9833 5.83333ZM14 1.16667C15.75 1.51667 17.3833 3.26667 18.4333 5.83333H14V1.16667ZM14 7H18.7833C19.3667 8.75 19.7167 10.7333 19.7167 12.8333H13.8833V7H14ZM9.56667 1.75C8.63333 2.8 7.81667 4.2 7.11667 5.83333H3.85C5.25 3.96667 7.23333 2.56667 9.56667 1.75ZM3.03333 7H6.76667C6.18333 8.75 5.95 10.7333 5.83333 12.8333H1.16667C1.28333 10.7333 1.98333 8.75 3.03333 7ZM1.16667 14H5.83333C5.83333 16.1 6.18333 18.0833 6.76667 19.8333H3.03333C1.98333 18.0833 1.28333 16.1 1.16667 14ZM3.85 21H7.11667C7.7 22.6333 8.63333 24.0333 9.56667 25.0833C7.23333 24.2667 5.25 22.8667 3.85 21ZM12.8333 25.6667C11.0833 25.3167 9.45 23.5667 8.4 21H12.8333V25.6667ZM12.8333 19.8333H7.93333C7.35 18.0833 7 16.1 7 14H12.8333V19.8333ZM12.8333 12.8333H7C7 10.7333 7.35 8.75 7.93333 7H12.8333V12.8333ZM12.8333 5.83333H8.4C9.45 3.26667 11.0833 1.51667 12.8333 1.16667V5.83333Z" fill="white"/>
</g>
<defs>
<clipPath id="clip0_2041_9860">
<rect width="27.72" height="27.72" fill="white" transform="scale(1.0101)"/>
</clipPath>
</defs>
</svg>
