<svg width="48" height="48" viewBox="0 0 48 48" fill="none" xmlns="http://www.w3.org/2000/svg">
<g clip-path="url(#clip0_2111_1180)">
<path d="M41.4843 1.40546H26.1093V16.7804H41.4843V1.40546Z" stroke="#9267DC" stroke-width="2.75447" stroke-miterlimit="10" stroke-linecap="round" stroke-linejoin="round"/>
<path d="M3.98441 16.7818L19.3594 16.7818L19.3594 1.40679L3.98441 1.40679L3.98441 16.7818Z" stroke="#9267DC" stroke-width="2.75447" stroke-miterlimit="10" stroke-linecap="round" stroke-linejoin="round"/>
<path d="M3.98441 38.9061L19.3594 38.9061L19.3594 23.5312L3.98441 23.5312L3.98441 38.9061Z" stroke="#9267DC" stroke-width="2.75447" stroke-miterlimit="10" stroke-linecap="round" stroke-linejoin="round"/>
<path d="M43.8046 39.9049C42.8624 42.7905 41.2856 46.593 41.2856 46.593L27.5972 46.5855C27.303 45.921 25.4163 41.495 25.124 39.2609C24.4368 35.8896 26.9643 32.7162 30.404 32.6234L30.4218 32.6262V25.2181C30.4218 23.6647 31.681 22.4056 33.2343 22.4056C34.7877 22.4056 36.0468 23.6647 36.0468 25.2181V33.4512L36.1349 33.4643L40.709 34.4759C43.1437 35.014 44.5799 37.5349 43.8046 39.9049Z" stroke="#9267DC" stroke-width="2.75447" stroke-miterlimit="10" stroke-linecap="round" stroke-linejoin="round"/>
<path d="M30.4218 32.6252V38.1564" stroke="#9267DC" stroke-width="2.75447" stroke-miterlimit="10" stroke-linecap="round" stroke-linejoin="round"/>
<path d="M31.4296 8.41405L33.2109 10.1953L36.164 7.24218" stroke="#9267DC" stroke-width="2.75447" stroke-miterlimit="10" stroke-linecap="round" stroke-linejoin="round"/>
</g>
<defs>
<clipPath id="clip0_2111_1180">
<rect width="47.0096" height="47.0096" fill="white" transform="scale(1.02106)"/>
</clipPath>
</defs>
</svg>
